<?xml version="1.0" encoding="UTF-8"?>
<svg version="1.1" xmlns="http://www.w3.org/2000/svg" width="247" height="265">
<path d="M0 0 C3.62762833 1.37832192 5.96448184 3.97561715 8.59130859 6.72583008 C9.12433594 7.26014648 9.65736328 7.79446289 10.20654297 8.3449707 C14.91356466 13.15856647 16.56476204 15.98201195 16.86474609 22.71801758 C15.72226509 28.15932541 11.26605253 32.30031157 7.45507812 36.10498047 C6.97645325 36.58550369 6.49782837 37.06602692 6.00469971 37.56111145 C4.43683517 39.13265059 2.86193884 40.6969213 1.28662109 42.26098633 C0.185334 43.36107937 -0.91558154 44.46154448 -2.0161438 45.56236267 C-4.31790161 47.86256119 -6.62296358 50.15937715 -8.93066406 52.45361328 C-11.87662712 55.38259761 -14.81597553 58.31811056 -17.75308037 61.25597477 C-20.02455453 63.52717591 -22.29863417 65.79575307 -24.5735817 68.06347466 C-25.65774546 69.14447442 -26.74132062 70.22606486 -27.82427597 71.30827522 C-29.34325383 72.82506465 -30.86549242 74.33850554 -32.38867188 75.85107422 C-33.25152802 76.71011856 -34.11438416 77.5691629 -35.00338745 78.45423889 C-36.90169476 80.25464913 -38.79296481 81.94209981 -40.80471802 83.60520935 C-43.17097181 85.56173863 -45.08006738 87.44008374 -47.03369141 89.78833008 C-51.54134349 95.05714271 -56.31694703 99.8548262 -61.59619141 104.35083008 C-65.04424147 107.31389429 -67.94182129 110.52397814 -70.85791016 114.00317383 C-72.60395959 115.92186635 -74.42877529 117.44516231 -76.47119141 119.03833008 C-79.0972002 121.18848493 -79.5428588 121.72844372 -80.53369141 125.16333008 C-80.56967008 126.74639167 -80.59619141 128.32985969 -80.59619141 129.91333008 C-75.87693778 130.61619764 -73.33668895 130.13922383 -69.47119141 127.28833008 C-64.51412333 123.1531593 -60.21708959 118.35647757 -55.9375 113.5378418 C-54.52726082 111.96254295 -53.06572553 110.43346509 -51.59619141 108.91333008 C-50.93619141 108.91333008 -50.27619141 108.91333008 -49.59619141 108.91333008 C-49.10119141 107.42833008 -49.10119141 107.42833008 -48.59619141 105.91333008 C-47.10009766 104.47583008 -47.10009766 104.47583008 -45.15869141 102.91333008 C-41.67006922 99.96765982 -38.62926505 96.82612392 -35.59619141 93.41333008 C-32.1627848 89.56707854 -28.67564142 86.11051973 -24.73681641 82.79614258 C-20.13188756 78.74582195 -15.90156196 74.27662042 -11.59619141 69.91333008 C-9.92952474 68.24666341 -8.26285807 66.57999674 -6.59619141 64.91333008 C-5.00927431 63.31930832 -3.42343374 61.72422001 -1.83761597 60.12910461 C0.63278808 57.64527516 3.10589131 55.16414035 5.57910156 52.68310547 C6.88337551 51.3737686 8.18675545 50.06354061 9.48925781 48.75244141 C11.37769764 46.85189315 13.26933055 44.95457466 15.16162109 43.05786133 C15.74291779 42.47140335 16.32421448 41.88494537 16.92312622 41.28071594 C21.18036748 37.02288382 23.66386298 34.62595999 29.77880859 34.60083008 C34.22936997 34.71180208 36.97721183 34.86746629 40.40380859 37.91333008 C42.14296833 39.83898326 43.83062863 41.7991633 45.50146484 43.78442383 C47.99642373 46.5765236 50.74652325 48.96189582 53.60693359 51.37036133 C55.30190879 52.82582916 56.92010405 54.2418728 58.40380859 55.91333008 C58.40380859 56.57333008 58.40380859 57.23333008 58.40380859 57.91333008 C59.39380859 58.24333008 60.38380859 58.57333008 61.40380859 58.91333008 C62.73714193 60.57999674 64.07047526 62.24666341 65.40380859 63.91333008 C66.55339064 64.91249952 67.72138886 65.89074568 68.90380859 66.85083008 C72.86709378 70.22601488 75.86076707 73.10177636 76.88818359 78.42114258 C77.27318614 83.7371393 76.70127062 87.24260143 73.46630859 91.53833008 C72.14680124 93.02809644 70.79048274 94.4858714 69.40380859 95.91333008 C68.68193359 96.67645508 67.96005859 97.43958008 67.21630859 98.22583008 C63.77632985 101.76136378 60.2300578 105.10128438 56.46630859 108.28833008 C52.19820271 111.93700906 48.58197762 116.092844 44.84912109 120.27661133 C42.17457793 123.16050372 39.35004201 125.69657029 36.34912109 128.22973633 C32.03343094 131.9648015 27.91718738 135.97431351 24.40380859 140.47583008 C22.63929678 142.62632885 20.94442696 144.24111984 18.84130859 146.03833008 C15.25243554 149.10678275 11.86973847 152.33064127 8.52880859 155.66333008 C7.60326172 156.58629883 6.67771484 157.50926758 5.72412109 158.46020508 C3.30304284 160.88164683 3.30304284 160.88164683 1.40380859 163.91333008 C-3.46388295 163.50621406 -5.96136576 161.15562251 -9.22119141 157.78833008 C-9.69814453 157.3268457 -10.17509766 156.86536133 -10.66650391 156.38989258 C-14.67750855 152.33432121 -17.02612612 148.27101463 -17.98681641 142.61254883 C-17.40517032 134.29177842 -11.50861394 129.45461371 -5.61962891 124.12426758 C-4.47210729 123.13851112 -3.31504794 122.16370511 -2.14697266 121.20239258 C2.10299266 117.66967582 5.61227415 113.54981994 9.07177734 109.26879883 C9.73113281 108.5978418 9.73113281 108.5978418 10.40380859 107.91333008 C11.06380859 107.91333008 11.72380859 107.91333008 12.40380859 107.91333008 C12.40380859 107.25333008 12.40380859 106.59333008 12.40380859 105.91333008 C13.64624023 104.68334961 13.64624023 104.68334961 15.50146484 103.17114258 C21.59797677 97.98164973 27.23943247 92.33721166 32.9152832 86.69702148 C34.20742104 85.41651272 35.50404083 84.14051199 36.80493164 82.86889648 C38.70057989 81.01576434 40.58276593 79.14987208 42.46240234 77.28051758 C43.04461044 76.71581757 43.62681854 76.15111755 44.22666931 75.56930542 C47.25610764 72.52329127 49.28013821 70.32181541 49.40380859 65.91333008 C48.46783544 63.89381946 48.46783544 63.89381946 46.40380859 62.91333008 C41.22394734 63.17841288 39.0894451 64.69070641 35.65380859 68.47583008 C34.26929675 69.98513635 32.85932173 71.47237207 31.40380859 72.91333008 C30.74380859 72.91333008 30.08380859 72.91333008 29.40380859 72.91333008 C29.03255859 73.7718457 29.03255859 73.7718457 28.65380859 74.64770508 C27.2106466 77.26343619 25.52164637 79.06106464 23.40380859 81.16333008 C22.70255859 81.86973633 22.00130859 82.57614258 21.27880859 83.30395508 C19.40380859 84.91333008 19.40380859 84.91333008 17.40380859 84.91333008 C16.90880859 86.39833008 16.90880859 86.39833008 16.40380859 87.91333008 C15.74380859 87.91333008 15.08380859 87.91333008 14.40380859 87.91333008 C13.90880859 89.39833008 13.90880859 89.39833008 13.40380859 90.91333008 C12.74380859 90.91333008 12.08380859 90.91333008 11.40380859 90.91333008 C10.90880859 92.39833008 10.90880859 92.39833008 10.40380859 93.91333008 C9.74380859 93.91333008 9.08380859 93.91333008 8.40380859 93.91333008 C8.40380859 94.57333008 8.40380859 95.23333008 8.40380859 95.91333008 C5.66425297 98.95728077 3.22317387 101.35729237 -0.59619141 102.91333008 C-0.59619141 103.57333008 -0.59619141 104.23333008 -0.59619141 104.91333008 C-2.25834408 106.2522864 -3.92582748 107.5846315 -5.59619141 108.91333008 C-6.19431641 109.67645508 -6.79244141 110.43958008 -7.40869141 111.22583008 C-9.83916167 114.2118364 -12.52374025 116.52152955 -15.43994141 119.01879883 C-19.80572961 122.85468158 -24.01731418 126.89039363 -27.59619141 131.47583008 C-29.34580344 133.60816974 -31.01003929 135.1974709 -33.09619141 136.97583008 C-37.90711552 141.08271652 -42.31828161 145.55370646 -46.76416016 150.04614258 C-47.23950195 150.52341797 -47.71484375 151.00069336 -48.20458984 151.49243164 C-49.55870539 152.87505488 -50.87313226 154.29620117 -52.18603516 155.71801758 C-54.66079251 157.97217258 -55.70595575 158.63042157 -58.97119141 158.91333008 C-59.68017578 158.99583008 -60.38916016 159.07833008 -61.11962891 159.16333008 C-68.93473393 158.37442358 -73.56313531 153.53686881 -78.83056641 148.21020508 C-79.59040833 147.45419006 -80.35025024 146.69817505 -81.13311768 145.91925049 C-82.73136064 144.32372039 -84.32459992 142.72316416 -85.91308594 141.11791992 C-88.33834143 138.67124937 -90.78418798 136.24664465 -93.23291016 133.82348633 C-94.78757967 132.26617344 -96.34100782 130.7076201 -97.89306641 129.14770508 C-98.62120544 128.42766296 -99.34934448 127.70762085 -100.09954834 126.96575928 C-104.76378404 122.21477159 -108.14383201 118.06297358 -108.88916016 111.22583008 C-107.61634942 101.17911071 -97.77187891 93.24712246 -90.59619141 86.91333008 C-89.93619141 86.91333008 -89.27619141 86.91333008 -88.59619141 86.91333008 C-88.59619141 86.25333008 -88.59619141 85.59333008 -88.59619141 84.91333008 C-87.91556641 84.37708008 -87.23494141 83.84083008 -86.53369141 83.28833008 C-84.09905001 81.31989661 -82.29749917 79.51893091 -80.28369141 77.16333008 C-75.41892305 71.48776699 -70.22615073 66.25961301 -64.53369141 61.41333008 C-61.95846671 59.19962731 -59.7048487 56.95954203 -57.53369141 54.35083008 C-54.04381017 50.21765276 -50.13635899 46.62760244 -46.15869141 42.97583008 C-41.34605174 38.55672823 -36.75000205 34.13865785 -32.60009766 29.07348633 C-30.8153249 27.14955001 -29.00328665 25.51554725 -27.01025391 23.81567383 C-23.70290419 20.96616522 -20.64184247 17.966128 -17.61572266 14.81958008 C-16.76171875 13.9352832 -15.90771484 13.05098633 -15.02783203 12.13989258 C-13.26047827 10.30005227 -11.50284745 8.45082922 -9.75439453 6.59301758 C-8.90425781 5.7190332 -8.05412109 4.84504883 -7.17822266 3.94458008 C-6.41743408 3.14600586 -5.65664551 2.34743164 -4.87280273 1.5246582 C-2.59619141 -0.08666992 -2.59619141 -0.08666992 0 0 Z " fill="#043C5D" transform="translate(151.59619140625,58.086669921875)"/>
<path d="M0 0 C3.24375983 1.25709723 5.28075721 3.32761393 7.8203125 5.6875 C8.77035156 6.56019531 9.72039062 7.43289062 10.69921875 8.33203125 C16.05292194 13.65304007 16.05292194 13.65304007 16.69140625 17.4609375 C16.69979562 23.4509511 16.44515204 27.23497511 12.2578125 31.875 C10.62846009 33.25368281 8.96031643 34.58774093 7.2578125 35.875 C4.80726256 38.26578043 2.42287858 40.70050157 0.0703125 43.1875 C-1.7421875 44.875 -1.7421875 44.875 -3.7421875 44.875 C-4.12503906 45.74463379 -4.12503906 45.74463379 -4.515625 46.63183594 C-5.86803527 49.10515312 -7.37951274 50.77102109 -9.3671875 52.765625 C-10.42679688 53.82910156 -10.42679688 53.82910156 -11.5078125 54.9140625 C-12.24515625 55.64367187 -12.9825 56.37328125 -13.7421875 57.125 C-14.47953125 57.87007812 -15.216875 58.61515625 -15.9765625 59.3828125 C-16.68296875 60.08664063 -17.389375 60.79046875 -18.1171875 61.515625 C-18.76429687 62.16047852 -19.41140625 62.80533203 -20.078125 63.46972656 C-21.7421875 64.875 -21.7421875 64.875 -23.7421875 64.875 C-23.99291016 65.45024414 -24.24363281 66.02548828 -24.50195312 66.61816406 C-25.90947577 69.17941196 -27.52388775 70.91557392 -29.5859375 72.984375 C-30.71322266 74.11552734 -30.71322266 74.11552734 -31.86328125 75.26953125 C-32.64832031 76.04683594 -33.43335938 76.82414062 -34.2421875 77.625 C-35.02722656 78.41777344 -35.81226563 79.21054688 -36.62109375 80.02734375 C-37.37261719 80.77628906 -38.12414063 81.52523437 -38.8984375 82.296875 C-39.58744141 82.98362305 -40.27644531 83.67037109 -40.98632812 84.37792969 C-42.7421875 85.875 -42.7421875 85.875 -44.7421875 85.875 C-44.7421875 86.535 -44.7421875 87.195 -44.7421875 87.875 C-46.36917068 89.58042701 -48.0439837 91.24047884 -49.7421875 92.875 C-50.9796875 94.19951172 -50.9796875 94.19951172 -52.2421875 95.55078125 C-53.0671875 96.42089844 -53.8921875 97.29101562 -54.7421875 98.1875 C-55.9796875 99.51201172 -55.9796875 99.51201172 -57.2421875 100.86328125 C-59.7421875 102.875 -59.7421875 102.875 -62.33984375 103.39453125 C-65.41623565 102.72923024 -66.25839178 101.71036431 -68.1796875 99.25 C-70.35589946 96.53092554 -72.46841695 94.19244855 -75.1171875 91.9375 C-78.14572832 88.9656431 -78.66524511 86.21238435 -78.83984375 82.04296875 C-78.61471292 77.04506439 -77.13349722 74.05714393 -73.7421875 70.5 C-70.7421875 67.875 -70.7421875 67.875 -68.7421875 67.875 C-68.7421875 67.215 -68.7421875 66.555 -68.7421875 65.875 C-67.11185787 64.15090373 -65.45526651 62.51311445 -63.7421875 60.875 C-62.72220577 59.84938301 -61.70537818 58.82062145 -60.69140625 57.7890625 C-50.89748684 47.90128594 -50.89748684 47.90128594 -46.3671875 44.0625 C-43.03734692 41.23633278 -40.23903215 38.12944806 -37.41015625 34.80859375 C-34.98382617 31.99586919 -32.46301069 29.40599832 -29.7421875 26.875 C-29.0821875 26.875 -28.4221875 26.875 -27.7421875 26.875 C-27.7421875 26.215 -27.7421875 25.555 -27.7421875 24.875 C-26.23828125 23.4296875 -26.23828125 23.4296875 -24.1796875 21.75 C-20.45881584 18.60968988 -17.35216833 15.25022582 -14.28515625 11.4765625 C-12.7421875 9.875 -12.7421875 9.875 -9.7421875 8.875 C-9.7421875 8.215 -9.7421875 7.555 -9.7421875 6.875 C-8.10614554 5.50426214 -6.43540689 4.17444744 -4.7421875 2.875 C-4.2265625 2.276875 -3.7109375 1.67875 -3.1796875 1.0625 C-1.7421875 -0.125 -1.7421875 -0.125 0 0 Z " fill="#033C5E" transform="translate(90.7421875,57.125)"/>
<path d="M0 0 C4.11943237 2.31215032 7.47855336 4.43566008 9 9 C10.31403276 9.70394612 11.6520257 10.36345658 13 11 C15.75 12.8125 15.75 12.8125 18 15 C18.39453125 17.421875 18.39453125 17.421875 18 20 C16.27734375 21.80859375 16.27734375 21.80859375 13.9375 23.4375 C10.25972625 26.08851357 6.80533661 28.83405227 3.41015625 31.8359375 C1.1951917 33.66435699 -0.16240826 34.02320118 -3.0625 34.4375 C-10.89503304 33.56721855 -16.38172436 27.9954583 -21.58984375 22.41796875 C-22.96468248 20.88480575 -22.96468248 20.88480575 -25 20 C-25.3125 17.75 -25.3125 17.75 -25 15 C-22.8125 13 -22.8125 13 -20 11 C-17.40153155 8.46649327 -14.88081373 5.87513819 -12.375 3.25 C-8.54788438 -0.37568848 -5.12261967 -0.5878416 0 0 Z " fill="#9AB939" transform="translate(124,31)"/>
<path d="M0 0 C2.4375 2 2.4375 2 5 5 C7.64573925 7.26075552 10.3093707 9.49740519 12.98828125 11.71875 C15 14 15 14 15.515625 16.56640625 C14.86196569 19.65148011 13.89050374 20.49650843 11.4375 22.4375 C10.70402344 23.02660156 9.97054687 23.61570313 9.21484375 24.22265625 C8.48394531 24.80917969 7.75304687 25.39570313 7 26 C6.40316406 26.57621094 5.80632812 27.15242188 5.19140625 27.74609375 C1.68148121 31.12632179 -1.08660596 32.93413206 -6.0390625 33.15234375 C-14.18793289 32.51926418 -19.42381966 26.381209 -25 21 C-25.61359375 20.4946875 -26.2271875 19.989375 -26.859375 19.46875 C-28 18 -28 18 -27.890625 15.9921875 C-26.84215546 13.64692669 -25.77691506 12.68484333 -23.75 11.125 C-21.31935635 9.16959421 -19.32730081 7.29324829 -17.4375 4.8125 C-12.42860811 -0.96699064 -7.19318932 -2.15526272 0 0 Z " fill="#9AB83A" transform="translate(127,214)"/>
<path d="M0 0 C2.74211491 0.99539 4.14551727 2.183851 6.15234375 4.28686523 C6.75691406 4.90432617 7.36148438 5.52178711 7.984375 6.15795898 C9.33984375 7.84936523 9.33984375 7.84936523 9.33984375 9.84936523 C7.35984375 9.18936523 5.37984375 8.52936523 3.33984375 7.84936523 C3.33984375 6.52936523 3.33984375 5.20936523 3.33984375 3.84936523 C-3.1145688 5.1442944 -6.4522145 9.25114134 -10.78515625 13.84936523 C-12.17891411 15.31217164 -13.57719231 16.77068756 -14.98046875 18.22436523 C-15.89723389 19.1950293 -15.89723389 19.1950293 -16.83251953 20.18530273 C-18.68736417 21.87413803 -20.40739204 22.78459947 -22.66015625 23.84936523 C-24.16811103 25.54479567 -24.16811103 25.54479567 -25.47265625 27.53686523 C-29.95061705 33.73026376 -35.10290007 38.44223675 -41.09765625 43.16186523 C-45.76211123 46.8896059 -49.16919664 50.87177994 -52.74609375 55.61889648 C-55.14386518 58.41303421 -57.67185959 60.09293111 -60.8984375 61.81420898 C-62.74974847 62.79992684 -62.74974847 62.79992684 -64.265625 64.47827148 C-65.66015625 65.84936523 -65.66015625 65.84936523 -67.66015625 65.84936523 C-67.99015625 66.83936523 -68.32015625 67.82936523 -68.66015625 68.84936523 C-69.32015625 68.84936523 -69.98015625 68.84936523 -70.66015625 68.84936523 C-70.66015625 70.16936523 -70.66015625 71.48936523 -70.66015625 72.84936523 C-72.84765625 75.28686523 -72.84765625 75.28686523 -75.66015625 77.84936523 C-76.89765625 79.21061523 -76.89765625 79.21061523 -78.16015625 80.59936523 C-80.79220802 82.96821183 -82.18831468 83.55177881 -85.66015625 83.84936523 C-79.79448391 75.21172959 -72.33353084 67.91369028 -64.41015625 61.16186523 C-61.89249564 59.01251971 -59.71598356 56.828858 -57.59765625 54.28686523 C-54.10777502 50.15368792 -50.20032383 46.56363759 -46.22265625 42.91186523 C-41.41001658 38.49276339 -36.81396689 34.07469301 -32.6640625 29.00952148 C-30.87928975 27.08558516 -29.0672515 25.45158241 -27.07421875 23.75170898 C-23.76686903 20.90220038 -20.70580731 17.90216315 -17.6796875 14.75561523 C-16.82568359 13.87131836 -15.97167969 12.98702148 -15.09179688 12.07592773 C-13.32444311 10.23608742 -11.5668123 8.38686437 -9.81835938 6.52905273 C-8.96822266 5.65506836 -8.11808594 4.78108398 -7.2421875 3.88061523 C-6.48139893 3.08204102 -5.72061035 2.2834668 -4.93676758 1.46069336 C-2.66015625 -0.15063477 -2.66015625 -0.15063477 0 0 Z " fill="#0E374F" transform="translate(151.66015625,58.150634765625)"/>
<path d="M0 0 C0.66 0.33 1.32 0.66 2 1 C0.50592885 5.7312253 0.50592885 5.7312253 -2 7.0625 C-2.66 7.371875 -3.32 7.68125 -4 8 C-4.433125 8.8971875 -4.433125 8.8971875 -4.875 9.8125 C-6.52104583 13.01314467 -9.25756471 14.71463726 -12 17 C-12.26941406 17.59941406 -12.53882813 18.19882813 -12.81640625 18.81640625 C-14.85308116 22.5738362 -18.36871724 25.08289836 -21.56835938 27.84570312 C-24.76567392 30.67242881 -26.85944776 33.34347591 -29 37 C-30.9453125 38.703125 -30.9453125 38.703125 -33.125 40.25 C-37.57815108 43.55159974 -41.34619465 47.25638553 -45.15234375 51.27734375 C-47 53 -47 53 -49 53 C-49.1546875 53.9590625 -49.1546875 53.9590625 -49.3125 54.9375 C-49.539375 55.618125 -49.76625 56.29875 -50 57 C-51.485 57.495 -51.485 57.495 -53 58 C-55.4903894 61.98462305 -54.99487354 65.54485654 -54.484375 70.01171875 C-54.12959633 72.21683512 -54.12959633 72.21683512 -52 74 C-52 74.99 -52 75.98 -52 77 C-51.01 77.33 -50.02 77.66 -49 78 C-49 78.66 -49 79.32 -49 80 C-48.34 80 -47.68 80 -47 80 C-47.33 80.99 -47.66 81.98 -48 83 C-49.73844199 81.5350208 -51.46658634 80.061035 -53.1796875 78.56640625 C-54.54073918 77.39520083 -55.94758455 76.27684337 -57.375 75.1875 C-59.93242125 71.74481754 -60.05143321 68.21017596 -60 64 C-59.0045987 58.35939265 -56.18277327 55.65992661 -52 52 C-51.34 52 -50.68 52 -50 52 C-50 51.34 -50 50.68 -50 50 C-48.36967037 48.27590373 -46.71307901 46.63811445 -45 45 C-43.98001827 43.97438301 -42.96319068 42.94562145 -41.94921875 41.9140625 C-32.15529934 32.02628594 -32.15529934 32.02628594 -27.625 28.1875 C-24.29515942 25.36133278 -21.49684465 22.25444806 -18.66796875 18.93359375 C-16.24163867 16.12086919 -13.72082319 13.53099832 -11 11 C-10.34 11 -9.68 11 -9 11 C-9 10.34 -9 9.68 -9 9 C-7.28515625 7.34375 -7.28515625 7.34375 -5.0625 5.5 C-2.07954821 3.11073001 -2.07954821 3.11073001 0 0 Z " fill="#0C2F45" transform="translate(72,73)"/>
<path d="M0 0 C0.99 0.33 1.98 0.66 3 1 C1.71034824 2.37562854 0.37310707 3.70766393 -1 5 C-1.66 5 -2.32 5 -3 5 C-3.38285156 5.86963379 -3.38285156 5.86963379 -3.7734375 6.75683594 C-5.12584777 9.23015312 -6.63732524 10.89602109 -8.625 12.890625 C-9.68460938 13.95410156 -9.68460938 13.95410156 -10.765625 15.0390625 C-11.50296875 15.76867187 -12.2403125 16.49828125 -13 17.25 C-14.10601562 18.36761719 -14.10601562 18.36761719 -15.234375 19.5078125 C-15.94078125 20.21164063 -16.6471875 20.91546875 -17.375 21.640625 C-18.02210937 22.28547852 -18.66921875 22.93033203 -19.3359375 23.59472656 C-21 25 -21 25 -23 25 C-23.25072266 25.57524414 -23.50144531 26.15048828 -23.75976562 26.74316406 C-25.16728827 29.30441196 -26.78170025 31.04057392 -28.84375 33.109375 C-29.97103516 34.24052734 -29.97103516 34.24052734 -31.12109375 35.39453125 C-31.90613281 36.17183594 -32.69117188 36.94914062 -33.5 37.75 C-34.28503906 38.54277344 -35.07007812 39.33554688 -35.87890625 40.15234375 C-36.63042969 40.90128906 -37.38195312 41.65023437 -38.15625 42.421875 C-38.84525391 43.10862305 -39.53425781 43.79537109 -40.24414062 44.50292969 C-42 46 -42 46 -44 46 C-44 46.66 -44 47.32 -44 48 C-45.62698318 49.70542701 -47.3017962 51.36547884 -49 53 C-49.825 53.88300781 -50.65 54.76601562 -51.5 55.67578125 C-52.325 56.54589844 -53.15 57.41601562 -54 58.3125 C-54.825 59.19550781 -55.65 60.07851562 -56.5 60.98828125 C-59 63 -59 63 -61.8125 63.29296875 C-62.534375 63.19628906 -63.25625 63.09960938 -64 63 C-64.66 61.68 -65.32 60.36 -66 59 C-65.11699219 59.10957031 -64.23398438 59.21914062 -63.32421875 59.33203125 C-58.79045678 58.87918781 -57.69183052 57.12930438 -54.8125 53.6875 C-53.97332031 52.70136719 -53.13414063 51.71523437 -52.26953125 50.69921875 C-51.52058594 49.80847656 -50.77164063 48.91773438 -50 48 C-47.43482275 45.15253052 -45.83971984 44.51888106 -42 44 C-41.92136719 43.42765625 -41.84273437 42.8553125 -41.76171875 42.265625 C-40.75037969 39.2575396 -39.12674488 37.90531014 -36.8125 35.75 C-33.16325116 32.24579285 -30.12670053 28.71303236 -27.2890625 24.53125 C-26 23 -26 23 -23 22 C-21.25146078 20.27482476 -21.25146078 20.27482476 -19.5625 18.1875 C-18.94890625 17.46949219 -18.3353125 16.75148438 -17.703125 16.01171875 C-17.14109375 15.34785156 -16.5790625 14.68398437 -16 14 C-13.8125 11.5 -13.8125 11.5 -12 10 C-10.68 10 -9.36 10 -8 10 C-7.9175 9.4225 -7.835 8.845 -7.75 8.25 C-6.774018 5.32205399 -5.36488777 3.94755463 -3 2 C-2.01 2 -1.02 2 0 2 C0 1.34 0 0.68 0 0 Z " fill="#0A2D47" transform="translate(90,97)"/>
<path d="M0 0 C0.66 0.33 1.32 0.66 2 1 C-0.5346908 5.88162672 -2.57077082 8.65107062 -7 12 C-7.91875633 13.06396207 -8.81435598 14.14829769 -9.6875 15.25 C-10.450625 16.1575 -11.21375 17.065 -12 18 C-12.66 18 -13.32 18 -14 18 C-14 18.66 -14 19.32 -14 20 C-15.43359375 21.41015625 -15.43359375 21.41015625 -17.4375 23.0625 C-22.22245459 27.12503694 -26.60174114 31.52733451 -31 36 C-33.86055075 38.90831505 -36.80585503 41.46106426 -40 44 C-40.53625 44.5775 -41.0725 45.155 -41.625 45.75 C-43 47 -43 47 -46 47 C-46 46.34 -46 45.68 -46 45 C-44.33333333 43.66666667 -42.66666667 42.33333333 -41 41 C-40.08171842 39.93562816 -39.1855845 38.85174949 -38.3125 37.75 C-37.1678125 36.38875 -37.1678125 36.38875 -36 35 C-35.34 35 -34.68 35 -34 35 C-34 34.34 -34 33.68 -34 33 C-32.72460938 31.74584961 -32.72460938 31.74584961 -30.84375 30.21484375 C-24.36694249 24.70755835 -18.48534207 18.5911549 -12.5 12.5625 C-11.28408886 11.3415631 -10.06794484 10.12085808 -8.8515625 8.90039062 C-5.89835034 5.93625987 -2.94830602 2.96901042 0 0 Z " fill="#133853" transform="translate(198,131)"/>
<path d="M0 0 C0.99 0.33 1.98 0.66 3 1 C2.34 1.721875 1.68 2.44375 1 3.1875 C-1.1535853 6.21597933 -1.41176754 7.39703406 -1 11 C0.32 11.66 1.64 12.32 3 13 C3 13.99 3 14.98 3 16 C3.99 16 4.98 16 6 16 C6.53625 16.66 7.0725 17.32 7.625 18 C10.75527387 20.6360201 12.7628623 20.4548088 16.7421875 20.2578125 C19.77471829 19.91153736 22.26174211 19.36912894 25 18 C25.34342449 16.66923011 25.67619874 15.33568021 26 14 C27.4540625 13.319375 27.4540625 13.319375 28.9375 12.625 C32.28221042 11.25937556 32.28221042 11.25937556 33.375 7.8125 C33.58125 6.884375 33.7875 5.95625 34 5 C34.99 5.33 35.98 5.66 37 6 C37.25390625 8.28515625 37.25390625 8.28515625 37 11 C35.27734375 12.80859375 35.27734375 12.80859375 32.9375 14.4375 C29.25972625 17.08851357 25.80533661 19.83405227 22.41015625 22.8359375 C20.1951917 24.66435699 18.83759174 25.02320118 15.9375 25.4375 C8.10496696 24.56721855 2.61827564 18.9954583 -2.58984375 13.41796875 C-3.96468248 11.88480575 -3.96468248 11.88480575 -6 11 C-6.3125 8.75 -6.3125 8.75 -6 6 C-3.5625 3.8125 -3.5625 3.8125 -1 2 C-0.67 1.34 -0.34 0.68 0 0 Z " fill="#98B24C" transform="translate(105,40)"/>
<path d="M0 0 C0.66 0 1.32 0 2 0 C0.58226538 3.54433654 -0.67612238 4.33806119 -4 6 C-4.27585938 6.57492188 -4.55171875 7.14984375 -4.8359375 7.7421875 C-6.34825222 10.67546907 -8.36374426 12.72372842 -10.625 15.125 C-14.00145963 18.75372385 -17.1404387 22.41927193 -20.125 26.375 C-23.1100496 30.19562129 -25.96651943 32.68599312 -30.23828125 34.96484375 C-32.08959222 35.9505616 -32.08959222 35.9505616 -33.60546875 37.62890625 C-35 39 -35 39 -37 39 C-37.33 39.99 -37.66 40.98 -38 42 C-38.66 42 -39.32 42 -40 42 C-40 43.32 -40 44.64 -40 46 C-42.1875 48.4375 -42.1875 48.4375 -45 51 C-46.2375 52.36125 -46.2375 52.36125 -47.5 53.75 C-50.13205177 56.11884659 -51.52815843 56.70241358 -55 57 C-49.13432766 48.36236436 -41.67337459 41.06432504 -33.75 34.3125 C-31.23233939 32.16315447 -29.05582731 29.97949277 -26.9375 27.4375 C-22.87160751 22.62213424 -18.20672103 18.48615335 -13.56933594 14.2355957 C-9.21331087 10.21460759 -5.19200113 6.05872102 -1.41796875 1.4765625 C-0.95003906 0.98929687 -0.48210937 0.50203125 0 0 Z " fill="#132D45" transform="translate(121,85)"/>
<path d="M0 0 C0.66 0.33 1.32 0.66 2 1 C-0.23515028 4.07333164 -2.61866233 6.61336298 -5.5 9.0625 C-10.31092411 13.16938644 -14.7220902 17.64037638 -19.16796875 22.1328125 C-19.88098145 22.84872559 -19.88098145 22.84872559 -20.60839844 23.57910156 C-21.96251398 24.9617248 -23.27694085 26.38287109 -24.58984375 27.8046875 C-27.72549557 30.66082417 -29.62145825 30.89461185 -33.71484375 31.140625 C-37.4196258 30.91263841 -39.77314047 29.84391973 -43 28 C-43.66 27.01 -44.32 26.02 -45 25 C-43.56138706 25.08746284 -42.12402492 25.19565348 -40.6875 25.3125 C-39.88699219 25.37050781 -39.08648437 25.42851562 -38.26171875 25.48828125 C-35.60062309 26.09035989 -34.84434073 27.07299974 -33 29 C-32.01 29 -31.02 29 -30 29 C-29.67 28.01 -29.34 27.02 -29 26 C-28.34 26 -27.68 26 -27 26 C-27 25.34 -27 24.68 -27 24 C-25.42578125 22.703125 -25.42578125 22.703125 -23.3125 21.25 C-19.56336017 18.53827539 -16.93372381 15.59381167 -14 12 C-11.41357804 9.57016726 -8.71925106 7.27929426 -6 5 C-5.39027344 4.48695313 -4.78054687 3.97390625 -4.15234375 3.4453125 C-2.77308919 2.29104272 -1.38733192 1.14454883 0 0 Z " fill="#0E3047" transform="translate(124,186)"/>
<path d="M0 0 C4.25657112 4.14742827 6.16568088 6.11997757 6.5 12.0625 C6.41981327 18.8961916 3.62357649 22.24043597 -1 27 C-1.721875 27.763125 -2.44375 28.52625 -3.1875 29.3125 C-7.3314516 33.57156137 -11.69188587 37.49775431 -16.203125 41.359375 C-18.76901816 43.70214701 -20.86438529 46.26374366 -23 49 C-23.99 48.34 -24.98 47.68 -26 47 C-21.79478176 42.08480985 -17.605731 37.44446172 -12.59375 33.34375 C-10.75288655 31.83538884 -10.75288655 31.83538884 -8.3125 29.25 C-6.23695993 27.23055561 -4.65348629 26.08104997 -2 25 C-2 24.34 -2 23.68 -2 23 C-1.34 23 -0.68 23 0 23 C0 22.34 0 21.68 0 21 C0.66 20.34 1.32 19.68 2 19 C3.14222874 15.00219942 3.08107875 11.1350163 3 7 C2.34 6.67 1.68 6.34 1 6 C0.375 2.9375 0.375 2.9375 0 0 Z " fill="#0E3047" transform="translate(222,127)"/>
<path d="M0 0 C0 0.66 0 1.32 0 2 C-1.36328125 3.33984375 -1.36328125 3.33984375 -3.3125 4.9375 C-6.99281285 8.06477836 -10.46069083 11.33907972 -13.875 14.75 C-14.80054688 15.67296875 -15.72609375 16.5959375 -16.6796875 17.546875 C-19.10076575 19.96831675 -19.10076575 19.96831675 -21 23 C-26.08335725 22.84595887 -28.35754718 19.97931568 -31.64453125 16.49609375 C-32.09183594 16.00238281 -32.53914062 15.50867188 -33 15 C-32.01 14.01 -31.02 13.02 -30 12 C-27.49962266 14.17424117 -26.56371414 15.73045798 -26 19 C-21.67830417 18.54508465 -20.02094509 16.07628614 -17.3125 12.875 C-5.96504237 0 -5.96504237 0 0 0 Z " fill="#0E374E" transform="translate(174,199)"/>
<path d="M0 0 C3.65533486 0.40701801 5.5938864 2.1277292 8.25 4.5625 C8.95640625 5.20316406 9.6628125 5.84382813 10.390625 6.50390625 C10.92171875 6.99761719 11.4528125 7.49132812 12 8 C10.125 9.0625 10.125 9.0625 8 10 C6 9 6 9 5 6 C-0.98834368 6.29211433 -3.9000126 9.00921323 -8 13 C-8.48082031 13.55945313 -8.96164063 14.11890625 -9.45703125 14.6953125 C-11 16 -11 16 -15 16 C-13.71480435 13.13302508 -12.42870746 11.02392288 -10 9 C-9.34 9 -8.68 9 -8 9 C-8 8.34 -8 7.68 -8 7 C-6.36395804 5.62926214 -4.69321939 4.29944744 -3 3 C-2.484375 2.401875 -1.96875 1.80375 -1.4375 1.1875 C-0.963125 0.795625 -0.48875 0.40375 0 0 Z " fill="#0D3049" transform="translate(89,57)"/>
<path d="M0 0 C-1.35033569 3.93963916 -3.07756471 6.55309937 -5.875 9.625 C-6.55304688 10.38039062 -7.23109375 11.13578125 -7.9296875 11.9140625 C-10 14 -10 14 -12.2109375 15.51171875 C-14.16229476 16.85555513 -14.16229476 16.85555513 -14.609375 19.04296875 C-14.65578125 19.75066406 -14.7021875 20.45835937 -14.75 21.1875 C-14.8325 22.445625 -14.915 23.70375 -15 25 C-14.34 25 -13.68 25 -13 25 C-10.8125 27.25 -10.8125 27.25 -9 30 C-9.25 32.3125 -9.25 32.3125 -10 34 C-14.05940075 30.26107826 -16.61878403 27.61795535 -17.20703125 22.03515625 C-17.14811563 15.33055819 -13.83834235 11.88150364 -9.29296875 7.2421875 C-8.53628906 6.50226563 -7.77960938 5.76234375 -7 5 C-6.45988281 4.42507812 -5.91976562 3.85015625 -5.36328125 3.2578125 C-2.29872881 0 -2.29872881 0 0 0 Z " fill="#102F43" transform="translate(151,179)"/>
<path d="M0 0 C6.18421053 6.18421053 6.18421053 6.18421053 6.3125 11.1875 C6.25948108 16.30382558 5.51708545 19.1026891 2 23 C0.37373596 24.38232443 -1.2925002 25.71937515 -3 27 C-4.35147138 28.31494512 -5.69112542 29.64264858 -7 31 C-7.73828125 29.29296875 -7.73828125 29.29296875 -8 27 C-6.41796875 24.67578125 -6.41796875 24.67578125 -4.1875 22.3125 C-3.45917969 21.52488281 -2.73085937 20.73726562 -1.98046875 19.92578125 C0 18 0 18 2 17 C2.33 16.01 2.66 15.02 3 14 C3.66 14 4.32 14 5 14 C5 13.34 5 12.68 5 12 C4.01 11.67 3.02 11.34 2 11 C1.34 7.37 0.68 3.74 0 0 Z " fill="#0B2C44" transform="translate(101,66)"/>
<path d="M0 0 C0 2 0 2 -2.25 4.5 C-4.5264965 6.56954228 -6.19566446 7.85749293 -9 9 C-9 9.66 -9 10.32 -9 11 C-10.66215268 12.33895632 -12.32963607 13.67130142 -14 15 C-14.598125 15.763125 -15.19625 16.52625 -15.8125 17.3125 C-18.82230545 21.01026098 -22.35951338 23.9383647 -26 27 C-26.61101562 27.51433594 -27.22203125 28.02867187 -27.8515625 28.55859375 C-29.22967314 29.7113735 -30.61408239 30.85661797 -32 32 C-30.79374068 28.56680041 -29.71267378 26.41126558 -27 24 C-26.2575 23.2575 -25.515 22.515 -24.75 21.75 C-23.8425 20.8425 -22.935 19.935 -22 19 C-21.40316406 18.37996094 -20.80632812 17.75992188 -20.19140625 17.12109375 C-19.57136719 16.48300781 -18.95132813 15.84492188 -18.3125 15.1875 C-17.73113281 14.58292969 -17.14976562 13.97835937 -16.55078125 13.35546875 C-15 12 -15 12 -13 12 C-12.73960937 11.42765625 -12.47921875 10.8553125 -12.2109375 10.265625 C-10.90320109 7.81889236 -9.41849894 5.86460574 -7.625 3.75 C-7.03976563 3.04359375 -6.45453125 2.3371875 -5.8515625 1.609375 C-4 0 -4 0 0 0 Z " fill="#0B2F45" transform="translate(160,152)"/>
<path d="M0 0 C1.32 0.66 2.64 1.32 4 2 C-1.65978806 5.81706637 -1.65978806 5.81706637 -4.3828125 7.28125 C-7.56059831 9.36815411 -9.70515116 11.81458493 -12.1875 14.6875 C-13.75078004 16.49452985 -15.3459394 18.27567842 -17 20 C-17.66 20 -18.32 20 -19 20 C-19.10699219 20.59554687 -19.21398437 21.19109375 -19.32421875 21.8046875 C-20.63871878 26.07491304 -24.42814921 29.12674956 -28.25 31.25 C-28.8275 31.4975 -29.405 31.745 -30 32 C-30.66 32.66 -31.32 33.32 -32 34 C-32 30.06903465 -30.32368837 28.97217476 -27.65544128 26.28990173 C-27.03051285 25.6773201 -26.40558441 25.06473846 -25.76171875 24.43359375 C-25.12514847 23.79889664 -24.48857819 23.16419952 -23.8327179 22.51026917 C-22.48352007 21.16780015 -21.13072624 19.82893705 -19.7746582 18.4934082 C-17.69942451 16.44924597 -15.63497252 14.39468507 -13.57226562 12.33789062 C-12.26103596 11.03583439 -10.94920652 9.7343818 -9.63671875 8.43359375 C-9.01786301 7.81898788 -8.39900726 7.20438202 -7.76139832 6.57115173 C-7.1810231 6.00038406 -6.60064789 5.42961639 -6.00268555 4.84155273 C-5.4941655 4.33986069 -4.98564545 3.83816864 -4.4617157 3.3212738 C-3 2 -3 2 0 0 Z " fill="#153243" transform="translate(176,93)"/>
<path d="M0 0 C8.01535872 0.19208921 8.01535872 0.19208921 11.4375 3 C12.283125 3.99 13.12875 4.98 14 6 C16.64573925 8.26075552 19.3093707 10.49740519 21.98828125 12.71875 C24 15 24 15 24.29296875 17.78125 C24.14794922 18.87953125 24.14794922 18.87953125 24 20 C23.01 20.33 22.02 20.66 21 21 C21 19.02 21 17.04 21 15 C20.46375 14.896875 19.9275 14.79375 19.375 14.6875 C16.2818636 13.79211841 13.75615414 12.67765904 11 11 C10.27840576 9.35636866 9.60648579 7.68949614 9 6 C6.98264795 4.65589738 6.98264795 4.65589738 5 4 C5 3.34 5 2.68 5 2 C3.35 2 1.7 2 0 2 C0 1.34 0 0.68 0 0 Z " fill="#9FB359" transform="translate(118,213)"/>
<path d="M0 0 C-1.51294925 3.70296419 -3.6805874 5.7200164 -6.6875 8.3125 C-14.23819337 14.39739077 -14.23819337 14.39739077 -20 22 C-20.66 22 -21.32 22 -22 22 C-20.73925872 12.87538501 -11.78417277 6.54063804 -5 1 C-3 0 -3 0 0 0 Z " fill="#0E324A" transform="translate(197,176)"/>
<path d="M0 0 C0.495 0.99 0.495 0.99 1 2 C-0.0468447 3.63512918 -1.11317851 5.25779111 -2.1875 6.875 C-2.77917969 7.77992188 -3.37085938 8.68484375 -3.98046875 9.6171875 C-6.25538294 12.30132223 -7.77767005 12.7580094 -11 14 C-13.53650969 16.2861569 -13.53650969 16.2861569 -16 19 C-20.66666667 23.66666667 -25.33333333 28.33333333 -30 33 C-30.66 32.67 -31.32 32.34 -32 32 C-30.93987294 30.76878615 -29.87675995 29.54014315 -28.8125 28.3125 C-28.22082031 27.62800781 -27.62914063 26.94351563 -27.01953125 26.23828125 C-22.99636015 21.77933146 -18.63768867 17.71266257 -14.1875 13.6875 C-9.31879367 9.25818311 -4.59411649 4.71572546 0 0 Z " fill="#12374B" transform="translate(139,129)"/>
<path d="M0 0 C4.11943237 2.31215032 7.47855336 4.43566008 9 9 C10.32467746 9.6837045 11.65863633 10.34964186 13 11 C13.99 12.485 13.99 12.485 15 14 C14.401875 13.690625 13.80375 13.38125 13.1875 13.0625 C10.91043228 11.89790296 10.91043228 11.89790296 8 11 C7.3125 8.9375 7.3125 8.9375 7 7 C6.01 7 5.02 7 4 7 C4 6.01 4 5.02 4 4 C3.154375 4.165 2.30875 4.33 1.4375 4.5 C-2 5 -2 5 -5.5625 4.875 C-9.35018846 5.01273413 -10.89849059 5.96186524 -14 8 C-14.66 7.67 -15.32 7.34 -16 7 C-15.06894211 6.01470572 -14.12987519 5.03697556 -13.1875 4.0625 C-12.66542969 3.51722656 -12.14335938 2.97195312 -11.60546875 2.41015625 C-8.16427144 -0.61240391 -4.34779326 -0.4989271 0 0 Z " fill="#9DAE5A" transform="translate(124,31)"/>
<path d="M0 0 C0 3.96800545 -1.41915096 5.05729966 -3.9375 8.0625 C-6.75398315 11.34455941 -6.75398315 11.34455941 -9 15 C-9.66 15 -10.32 15 -11 15 C-11 17.97 -11 20.94 -11 24 C-10.34 24 -9.68 24 -9 24 C-8.67 26.64 -8.34 29.28 -8 32 C-11.75187168 28.62331548 -13.8086987 25.72715576 -14.16796875 20.60546875 C-13.60826681 11.92358048 -5.9842783 5.51492314 0 0 Z " fill="#0F2C42" transform="translate(57,149)"/>
<path d="M0 0 C2.12109375 0.3984375 2.12109375 0.3984375 4 1 C2.47142825 2.63732389 0.92652015 4.25940527 -0.625 5.875 C-1.48351562 6.77992188 -2.34203125 7.68484375 -3.2265625 8.6171875 C-6.6736751 11.57879128 -9.64959297 12.87453343 -14.1953125 13.1171875 C-17.699178 12.6774311 -19.75384079 12.20308135 -22.5 9.9375 C-22.995 9.298125 -23.49 8.65875 -24 8 C-23.01 8 -22.02 8 -21 8 C-21 8.66 -21 9.32 -21 10 C-12.97147635 10.05459887 -12.97147635 10.05459887 -6 6.6875 C-5.01 5.3571875 -5.01 5.3571875 -4 4 C-1.9375 1.625 -1.9375 1.625 0 0 Z " fill="#93A84E" transform="translate(135,234)"/>
<path d="M0 0 C2.5531265 1.23343611 4.16949553 2.50545514 6.125 4.5546875 C6.72957031 5.17214844 7.33414063 5.78960937 7.95703125 6.42578125 C9.3125 8.1171875 9.3125 8.1171875 9.3125 10.1171875 C7.3325 9.4571875 5.3525 8.7971875 3.3125 8.1171875 C3.3125 6.7971875 3.3125 5.4771875 3.3125 4.1171875 C0.3425 3.6221875 0.3425 3.6221875 -2.6875 3.1171875 C-3.0175 4.1071875 -3.3475 5.0971875 -3.6875 6.1171875 C-5.32014644 7.57680133 -7.01662023 8.96625502 -8.75 10.3046875 C-9.66910156 11.02011719 -10.58820313 11.73554687 -11.53515625 12.47265625 C-12.24542969 13.01535156 -12.95570313 13.55804688 -13.6875 14.1171875 C-14.3475 13.7871875 -15.0075 13.4571875 -15.6875 13.1171875 C-13.64258106 10.91059122 -11.57943564 8.72833705 -9.5 6.5546875 C-8.6327832 5.61206055 -8.6327832 5.61206055 -7.74804688 4.65039062 C-3.39323785 0.14796095 -3.39323785 0.14796095 0 0 Z " fill="#0E3045" transform="translate(151.6875,57.8828125)"/>
<path d="M0 0 C0.99 0.33 1.98 0.66 3 1 C2.34 1.721875 1.68 2.44375 1 3.1875 C-1.1535853 6.21597933 -1.41176754 7.39703406 -1 11 C0.32 11.66 1.64 12.32 3 13 C3 13.99 3 14.98 3 16 C3.99 16 4.98 16 6 16 C6.33 17.65 6.66 19.3 7 21 C3.61861027 19.20363671 0.64678049 17.03762832 -2.3125 14.625 C-3.00988281 14.06039062 -3.70726563 13.49578125 -4.42578125 12.9140625 C-6 11 -6 11 -6.3828125 8.41015625 C-6 6 -6 6 -3.5625 3.8125 C-2.716875 3.214375 -1.87125 2.61625 -1 2 C-0.67 1.34 -0.34 0.68 0 0 Z " fill="#99AE52" transform="translate(105,40)"/>
<path d="M0 0 C5.89534884 5.74418605 5.89534884 5.74418605 6.3125 10.75 C6.24840498 15.17255653 4.8718333 17.58484689 2 21 C-0.75 23.375 -0.75 23.375 -3 25 C-2.67 23.68 -2.34 22.36 -2 21 C-1.34 21 -0.68 21 0 21 C0.144375 20.195625 0.28875 19.39125 0.4375 18.5625 C1 16 1 16 2 15 C2.39277298 9.76302687 1.25447333 5.04029461 0 0 Z " fill="#0C273D" transform="translate(162,68)"/>
<path d="M0 0 C0.33 1.32 0.66 2.64 1 4 C-3.75 8 -3.75 8 -6 8 C-6.08378906 8.72574219 -6.16757812 9.45148438 -6.25390625 10.19921875 C-7.15852741 13.59510028 -8.57375384 15.23503357 -10.9375 17.8125 C-11.64777344 18.60269531 -12.35804687 19.39289063 -13.08984375 20.20703125 C-15 22 -15 22 -17 22 C-15.68151828 17.31206498 -12.8793533 14.4422679 -9.67578125 10.93359375 C-7.84502998 8.93571533 -7.84502998 8.93571533 -6.25 6.0625 C-5 4 -5 4 -2 3 C-2 2.34 -2 1.68 -2 1 C-1.34 0.67 -0.68 0.34 0 0 Z M-19 22 C-18.01 22.495 -18.01 22.495 -17 23 C-17.99 23.495 -17.99 23.495 -19 24 C-19 23.34 -19 22.68 -19 22 Z " fill="#0B3956" transform="translate(65,142)"/>
<path d="M0 0 C0 2.83967231 -0.40267181 5.23735711 -1 8 C-0.38125 8.2475 0.2375 8.495 0.875 8.75 C3.37818306 10.22246063 3.83045281 11.41028837 5 14 C5.66 14.33 6.32 14.66 7 15 C7 15.99 7 16.98 7 18 C3.65179102 16.53374144 1.30733641 14.66341553 -1.3125 12.125 C-2.03050781 11.44695312 -2.74851562 10.76890625 -3.48828125 10.0703125 C-5 8 -5 8 -4.859375 5.8828125 C-3.71193067 3.36886629 -2.03417082 1.83731558 0 0 Z " fill="#9CAE63" transform="translate(104,224)"/>
<path d="M0 0 C2.57595583 3.86393374 3.5992478 7.82448804 4.4375 12.375 C4.623125 12.91125 4.80875 13.4475 5 14 C5.99 14.33 6.98 14.66 8 15 C8 15.66 8 16.32 8 17 C8.66 17 9.32 17 10 17 C9.67 17.99 9.34 18.98 9 20 C2.73816248 15.27850754 0.7219093 12.0033152 -0.6875 4.1875 C-0.790625 3.135625 -0.89375 2.08375 -1 1 C-0.67 0.67 -0.34 0.34 0 0 Z " fill="#0D344E" transform="translate(15,136)"/>
<path d="M0 0 C3.8456534 0.2683014 5.65695666 0.70596285 8.625 3.25 C10.81668717 5.78774304 12.95189068 8.34504348 15 11 C13.35 11 11.7 11 10 11 C10 9.68 10 8.36 10 7 C8.865625 6.731875 7.73125 6.46375 6.5625 6.1875 C5.386875 5.795625 4.21125 5.40375 3 5 C2.67 4.01 2.34 3.02 2 2 C1.34 2 0.68 2 0 2 C0 1.34 0 0.68 0 0 Z " fill="#0D2B3F" transform="translate(183,93)"/>
<path d="M0 0 C1.32 0.33 2.64 0.66 4 1 C3.43152344 1.4846875 2.86304687 1.969375 2.27734375 2.46875 C-2.93070664 6.98992897 -7.60470654 11.68607607 -12 17 C-12.33 16.01 -12.66 15.02 -13 14 C-12.01 13.67 -11.02 13.34 -10 13 C-9.7525 12.278125 -9.505 11.55625 -9.25 10.8125 C-7.68152657 7.28343478 -5.54829043 5.6877382 -2.55859375 3.33203125 C-0.86950777 2.06350705 -0.86950777 2.06350705 0 0 Z " fill="#0E2D4A" transform="translate(113,135)"/>
<path d="M0 0 C0.99 0.33 1.98 0.66 3 1 C-5.2095968 10.5344885 -5.2095968 10.5344885 -9 14 C-9.66 14 -10.32 14 -11 14 C-11 13.34 -11 12.68 -11 12 C-10.34 12 -9.68 12 -9 12 C-8.9175 11.4225 -8.835 10.845 -8.75 10.25 C-7.78202213 7.3460664 -6.31305716 5.96259396 -4 4 C-3.34 4 -2.68 4 -2 4 C-2 3.34 -2 2.68 -2 2 C-1.34 2 -0.68 2 0 2 C0 1.34 0 0.68 0 0 Z " fill="#172B3C" transform="translate(222,148)"/>
<path d="M0 0 C1.32 0 2.64 0 4 0 C3.44988438 3.76745848 1.97622408 5.30609364 -0.875 7.75 C-1.57367188 8.36359375 -2.27234375 8.9771875 -2.9921875 9.609375 C-5 11 -5 11 -8 11 C-8 10.34 -8 9.68 -8 9 C-7.34 9 -6.68 9 -6 9 C-5.7525 8.443125 -5.505 7.88625 -5.25 7.3125 C-3.74989321 4.53730243 -2.16884385 2.2964229 0 0 Z " fill="#102D40" transform="translate(191,117)"/>
<path d="M0 0 C6 6 6 6 6.09765625 8.50390625 C6.08605469 9.51324219 6.07445313 10.52257812 6.0625 11.5625 C6.05347656 12.57441406 6.04445313 13.58632812 6.03515625 14.62890625 C6.02355469 15.41136719 6.01195313 16.19382812 6 17 C5.34 16.67 4.68 16.34 4 16 C4.33 14.68 4.66 13.36 5 12 C4.01 11.67 3.02 11.34 2 11 C1.34 7.37 0.68 3.74 0 0 Z " fill="#092937" transform="translate(101,66)"/>
<path d="M0 0 C-0.84504353 4.70373626 -3.45356112 6.99574852 -7 10 C-9.25 11.25 -9.25 11.25 -11 12 C-11.66 12.66 -12.32 13.32 -13 14 C-13 11 -13 11 -10.6640625 8.30078125 C-9.65880492 7.29685338 -8.64541032 6.3010225 -7.625 5.3125 C-7.11710938 4.80138672 -6.60921875 4.29027344 -6.0859375 3.76367188 C-2.26699141 0 -2.26699141 0 0 0 Z " fill="#133B51" transform="translate(157,113)"/>
<path d="M0 0 C0.66 0.66 1.32 1.32 2 2 C1.2575 2.556875 1.2575 2.556875 0.5 3.125 C-1.59755514 5.74694393 -1.21743835 7.73842472 -1 11 C1.97 11 4.94 11 8 11 C7.67 11.66 7.34 12.32 7 13 C3.7 13 0.4 13 -3 13 C-4.54586876 9.90826248 -4.29359521 7.40570448 -4 4 C-2 1.5625 -2 1.5625 0 0 Z " fill="#0C2942" transform="translate(72,177)"/>
<path d="M0 0 C0.99 0.66 1.98 1.32 3 2 C2.01 2.33 1.02 2.66 0 3 C-0.68441309 4.3243115 -1.34904149 5.65892758 -2 7 C-3.7265625 8.703125 -3.7265625 8.703125 -5.625 10.25 C-6.25664062 10.77078125 -6.88828125 11.2915625 -7.5390625 11.828125 C-8.02117187 12.21484375 -8.50328125 12.6015625 -9 13 C-8.70787534 9.49450405 -8.33552852 8.29138003 -5.625 5.9375 C-4.75875 5.298125 -3.8925 4.65875 -3 4 C-1.23676495 1.87396815 -1.23676495 1.87396815 0 0 Z " fill="#0A2836" transform="translate(181,128)"/>
<path d="M0 0 C0.33 1.32 0.66 2.64 1 4 C-0.06893218 5.03590338 -1.15578488 6.05333942 -2.25 7.0625 C-3.15492187 7.91521484 -3.15492187 7.91521484 -4.078125 8.78515625 C-6 10 -6 10 -8.234375 9.68359375 C-8.81703125 9.45800781 -9.3996875 9.23242188 -10 9 C-8.71034824 7.62437146 -7.37310707 6.29233607 -6 5 C-5.34 5 -4.68 5 -4 5 C-3.67 4.01 -3.34 3.02 -3 2 C-2.01 1.34 -1.02 0.68 0 0 Z " fill="#0C2F48" transform="translate(106,162)"/>
<path d="M0 0 C5.28 0.33 10.56 0.66 16 1 C11.54523015 4.34107739 10.3528037 4.56345302 5 4 C2.0625 2.5625 2.0625 2.5625 0 1 C0 0.67 0 0.34 0 0 Z " fill="#96A26E" transform="translate(112,61)"/>
<path d="M0 0 C0.33 0.99 0.66 1.98 1 3 C-2.83314543 8.63697858 -2.83314543 8.63697858 -6.8125 9.875 C-7.8953125 9.936875 -7.8953125 9.936875 -9 10 C-7.61811547 6.78956118 -6.07578097 4.95063635 -3.375 2.75 C-2.74335937 2.22921875 -2.11171875 1.7084375 -1.4609375 1.171875 C-0.73777344 0.59179688 -0.73777344 0.59179688 0 0 Z " fill="#9EB160" transform="translate(115,214)"/>
<path d="M0 0 C1.45922693 0.11409593 2.91740598 0.24165544 4.375 0.375 C5.59316406 0.47941406 5.59316406 0.47941406 6.8359375 0.5859375 C9 1 9 1 11 3 C11.125 5.625 11.125 5.625 11 8 C8.96166576 6.7260411 6.96147874 5.38938077 5 4 C5 3.34 5 2.68 5 2 C3.35 2 1.7 2 0 2 C0 1.34 0 0.68 0 0 Z " fill="#A1B261" transform="translate(118,213)"/>
<path d="M0 0 C3.53586014 3.17320782 5.58578031 5.16743695 6 10 C4.87105124 9.06725891 3.74699124 8.12859878 2.625 7.1875 C1.99851562 6.66542969 1.37203125 6.14335937 0.7265625 5.60546875 C-1 4 -1 4 -3 1 C-2.01 0.67 -1.02 0.34 0 0 Z " fill="#092D45" transform="translate(69,197)"/>
<path d="M0 0 C1.65 0 3.3 0 5 0 C4.67 0.66 4.34 1.32 4 2 C3.34 2 2.68 2 2 2 C1.67 2.99 1.34 3.98 1 5 C0.34 5 -0.32 5 -1 5 C-1.33 5.99 -1.66 6.98 -2 8 C-2.66 8 -3.32 8 -4 8 C-4.33 8.99 -4.66 9.98 -5 11 C-5.8125 9.3125 -5.8125 9.3125 -6 7 C-3.625 4.375 -3.625 4.375 -1 2 C-0.67 1.34 -0.34 0.68 0 0 Z " fill="#0C2842" transform="translate(167,141)"/>
<path d="M0 0 C1.875 0.25 1.875 0.25 4 1 C6.08858407 3.92401769 6.37223878 6.46373159 6 10 C5.34 10.66 4.68 11.32 4 12 C3.01 11.67 2.02 11.34 1 11 C1.66 10.01 2.32 9.02 3 8 C2.84298574 5.38084878 2.84298574 5.38084878 2 3 C1.34 2.67 0.68 2.34 0 2 C0 1.34 0 0.68 0 0 Z " fill="#093448" transform="translate(198,119)"/>
<path d="M0 0 C-1.40844718 3.21524305 -3.10344786 5.32183868 -5.625 7.75 C-6.57246094 8.67039062 -6.57246094 8.67039062 -7.5390625 9.609375 C-8.02117187 10.06828125 -8.50328125 10.5271875 -9 11 C-9.33 10.01 -9.66 9.02 -10 8 C-8.75 5.8125 -8.75 5.8125 -7 4 C-6.01 4 -5.02 4 -4 4 C-4 3.01 -4 2.02 -4 1 C-2 0 -2 0 0 0 Z " fill="#092E3D" transform="translate(135,116)"/>
<path d="M0 0 C1.32 0.33 2.64 0.66 4 1 C3.3503125 1.5878125 3.3503125 1.5878125 2.6875 2.1875 C0.87822543 3.99396625 0.87822543 3.99396625 -0.4375 6.5 C-2.03796923 9.06075077 -3.49756426 10.36047314 -6 12 C-6.66 11.67 -7.32 11.34 -8 11 C-6.625 9.5 -6.625 9.5 -5 8 C-4.34 8 -3.68 8 -3 8 C-1.92474806 5.34771188 -0.90543849 2.71631546 0 0 Z " fill="#0A3853" transform="translate(45,101)"/>
<path d="M0 0 C0.99 0.99 1.98 1.98 3 3 C-1.62 3 -6.24 3 -11 3 C-8.9204984 -1.15900321 -4.07726429 -0.29123316 0 0 Z " fill="#91A167" transform="translate(124,31)"/>
<path d="M0 0 C0.66 0.33 1.32 0.66 2 1 C-0.68058098 4.57410797 -3.42589203 7.31941902 -7 10 C-7.66 9.34 -8.32 8.68 -9 8 C-6.03 5.36 -3.06 2.72 0 0 Z " fill="#0A2F44" transform="translate(124,186)"/>
<path d="M0 0 C0.33 0 0.66 0 1 0 C1.4375 2.125 1.4375 2.125 1 5 C-1.12689146 7.276147 -3.5023433 9.1458722 -6 11 C-5.67 9.68 -5.34 8.36 -5 7 C-4.34 7 -3.68 7 -3 7 C-2.87625 6.21625 -2.7525 5.4325 -2.625 4.625 C-2 2 -2 2 0 0 Z " fill="#0F2F45" transform="translate(165,82)"/>
<path d="M0 0 C0.33 0.66 0.66 1.32 1 2 C2.32796291 2.35412344 3.66216607 2.68521554 5 3 C5.99 3.66 6.98 4.32 8 5 C7.625 7.9375 7.625 7.9375 7 11 C6.01 11.495 6.01 11.495 5 12 C4.67 9.69 4.34 7.38 4 5 C2.68 4.67 1.36 4.34 0 4 C0 2.68 0 1.36 0 0 Z " fill="#9CB345" transform="translate(131,40)"/>
<path d="M0 0 C1.33333333 1.33333333 2.66666667 2.66666667 4 4 C4.5775 4.515625 5.155 5.03125 5.75 5.5625 C7 7 7 7 7 10 C3.17398693 8.54875366 1.77670876 6.64225296 0 3 C0 2.01 0 1.02 0 0 Z " fill="#98A454" transform="translate(104,232)"/>
<path d="M0 0 C0.99 0.33 1.98 0.66 3 1 C1.37660195 2.70884005 -0.29319053 4.37446717 -2 6 C-2.66 6 -3.32 6 -4 6 C-4 6.66 -4 7.32 -4 8 C-4.99 8.33 -5.98 8.66 -7 9 C-6.34 7.35 -5.68 5.7 -5 4 C-4.01 4 -3.02 4 -2 4 C-1.34 2.68 -0.68 1.36 0 0 Z " fill="#0D283D" transform="translate(50,137)"/>
<path d="M0 0 C0.33 0.66 0.66 1.32 1 2 C-1.31 4.64 -3.62 7.28 -6 10 C-6.66 9.67 -7.32 9.34 -8 9 C-6.85459775 7.68712379 -5.70866567 6.37470979 -4.5625 5.0625 C-3.92441406 4.33160156 -3.28632812 3.60070312 -2.62890625 2.84765625 C-1.77458541 1.87860647 -0.91348825 0.91348825 0 0 Z " fill="#0D293A" transform="translate(76,130)"/>
<path d="M0 0 C2.5 1.1875 2.5 1.1875 5 3 C5.3125 5.6875 5.3125 5.6875 5 8 C4.01 8.33 3.02 8.66 2 9 C1.34 6.03 0.68 3.06 0 0 Z " fill="#889258" transform="translate(137,225)"/>
<path d="M0 0 C0.99 0 1.98 0 3 0 C3 0.66 3 1.32 3 2 C1.25 3.7265625 1.25 3.7265625 -1 5.625 C-1.7425 6.25664062 -2.485 6.88828125 -3.25 7.5390625 C-3.8275 8.02117187 -4.405 8.50328125 -5 9 C-5 4.66314164 -2.91985986 3.0556673 0 0 Z " fill="#123348" transform="translate(171,199)"/>
<path d="M0 0 C1.65 0 3.3 0 5 0 C5 0.66 5 1.32 5 2 C5.66 2 6.32 2 7 2 C7 2.66 7 3.32 7 4 C2.545 4.495 2.545 4.495 -2 5 C-1.01 4.01 -0.02 3.02 1 2 C0.67 1.34 0.34 0.68 0 0 Z " fill="#113952" transform="translate(178,93)"/>
<path d="M0 0 C0.33 0.66 0.66 1.32 1 2 C0.236875 2.20625 -0.52625 2.4125 -1.3125 2.625 C-4.82229103 4.42070704 -5.52599781 6.43136312 -7 10 C-7.33 10 -7.66 10 -8 10 C-8.24360427 7.07674878 -8.19608294 5.37152557 -6.8125 2.75 C-4.59691281 0.61081236 -3.01802393 0.32627286 0 0 Z " fill="#98B144" transform="translate(111,222)"/>
<path d="M0 0 C0.66 0.33 1.32 0.66 2 1 C1.01 1.66 0.02 2.32 -1 3 C-0.67 2.01 -0.34 1.02 0 0 Z M-6 2 C-4.35 2.33 -2.7 2.66 -1 3 C-2.65 4.98 -4.3 6.96 -6 9 C-6 6.66666667 -6 4.33333333 -6 2 Z " fill="#093A50" transform="translate(79,70)"/>
<path d="M0 0 C0.625 1.875 0.625 1.875 1 4 C0.34 4.66 -0.32 5.32 -1 6 C-2.32 6 -3.64 6 -5 6 C-4.67 5.01 -4.34 4.02 -4 3 C-3.34 3 -2.68 3 -2 3 C-2 2.34 -2 1.68 -2 1 C-1.34 0.67 -0.68 0.34 0 0 Z " fill="#153347" transform="translate(65,142)"/>
<path d="M0 0 C0.99 0 1.98 0 3 0 C1.95125002 2.62187494 1.35068687 3.79371361 -1.125 5.25 C-1.74375 5.4975 -2.3625 5.745 -3 6 C-2.42655063 3.13275314 -2.1385485 2.1385485 0 0 Z " fill="#153757" transform="translate(102,206)"/>
<path d="M0 0 C0.99 0.33 1.98 0.66 3 1 C1.02 3.31 -0.96 5.62 -3 8 C-3.33 6.68 -3.66 5.36 -4 4 C-2.0625 1.75 -2.0625 1.75 0 0 Z " fill="#0D2F47" transform="translate(87,161)"/>
<path d="M0 0 C2.31 0 4.62 0 7 0 C7 1.32 7 2.64 7 4 C4.625 3.6875 4.625 3.6875 2 3 C1.34 2.01 0.68 1.02 0 0 Z " fill="#0F2C40" transform="translate(146,218)"/>
<path d="M0 0 C1.98 1.65 3.96 3.3 6 5 C2.25 6.125 2.25 6.125 0 5 C0 3.35 0 1.7 0 0 Z " fill="#0E354C" transform="translate(198,104)"/>
<path d="M0 0 C0.66 0.33 1.32 0.66 2 1 C-1.96 4.465 -1.96 4.465 -6 8 C-6 4.45176068 -5.32265612 3.58072903 -3 1 C-2.01 0.67 -1.02 0.34 0 0 Z " fill="#0C3A55" transform="translate(174,98)"/>
<path d="M0 0 C1.9375 0.6875 1.9375 0.6875 2.9375 2.6875 C0.2975 3.0175 -2.3425 3.3475 -5.0625 3.6875 C-4.7325 2.6975 -4.4025 1.7075 -4.0625 0.6875 C-2.0625 -0.3125 -2.0625 -0.3125 0 0 Z " fill="#0E2734" transform="translate(91.0625,57.3125)"/>
<path d="M0 0 C0.33 0.99 0.66 1.98 1 3 C-0.65 4.32 -2.3 5.64 -4 7 C-3.6875 4.625 -3.6875 4.625 -3 2 C-2.01 1.34 -1.02 0.68 0 0 Z " fill="#0A2C44" transform="translate(176,134)"/>
<path d="M0 0 C0.99 0.33 1.98 0.66 3 1 C-0.465 3.97 -0.465 3.97 -4 7 C-3.04065919 3.16263678 -2.76390737 2.40339772 0 0 Z " fill="#0B2F47" transform="translate(151,98)"/>
<path d="M0 0 C-1.15173355 2.46800047 -2.04783565 4.04783565 -4 6 C-4.99 5.67 -5.98 5.34 -7 5 C-2.25 0 -2.25 0 0 0 Z " fill="#08203D" transform="translate(123,85)"/>
<path d="M0 0 C0.99 0.33 1.98 0.66 3 1 C3 2.65 3 4.3 3 6 C2.01 6.33 1.02 6.66 0 7 C0 4.69 0 2.38 0 0 Z " fill="#959E88" transform="translate(139,45)"/>
</svg>
